<svg width="100" height="100" viewBox="0 0 100 100" fill="none" xmlns="http://www.w3.org/2000/svg">
<path d="M49.5529 99.1214C36.8544 99.1214 24.1662 94.2919 14.4966 84.6223C-4.83221 65.2934 -4.83221 33.8489 14.4966 14.5201C23.8644 5.15229 36.3131 0 49.5529 0C62.7927 0 75.2415 5.15229 84.6092 14.5201C103.938 33.8489 103.938 65.2934 84.6092 84.6223C74.95 94.2815 62.2514 99.1214 49.5529 99.1214ZM17.0988 82.0201C34.9912 99.9126 64.1042 99.9126 81.9967 82.0201C99.8891 64.1277 99.8891 35.0147 81.9967 17.1222C73.3263 8.45183 61.8039 3.6847 49.5425 3.6847C37.2812 3.6847 25.7588 8.46223 17.0884 17.1222C-0.804078 35.0147 -0.804078 64.1277 17.0884 82.0201H17.0988Z" fill="#9DADF2"/>
<path d="M48.8973 68.1142C49.0742 68.541 49.4906 68.7907 49.9277 68.7907C50.0735 68.7907 50.2192 68.7595 50.3649 68.7074C53.8622 67.2398 57.0473 64.9707 59.5661 62.1395C59.9721 61.6816 59.9304 60.9739 59.4724 60.5679C59.0145 60.162 58.3067 60.2036 57.9007 60.6616C55.6004 63.2533 52.6964 65.3247 49.501 66.657C48.9389 66.8964 48.6683 67.5521 48.9077 68.1142H48.8973Z" fill="#9DADF2"/>
<path d="M68.4429 32.4336L49.9572 25.0434C49.6866 24.9393 49.3951 24.9393 49.1245 25.0434L30.6388 32.4336C30.212 32.6001 29.9414 33.006 29.9414 33.464V46.7038C29.9622 58.9235 37.6855 69.9671 49.1558 74.1722C49.2807 74.2138 49.4056 74.2347 49.5409 74.2347C49.6762 74.2347 49.8011 74.2138 49.926 74.1722C61.3963 69.9567 69.1195 58.9235 69.1403 46.7038V33.464C69.1403 33.006 68.8697 32.6001 68.4429 32.4336ZM66.9129 46.7038C66.8921 57.8202 59.9182 67.9478 49.5512 71.9343C39.1842 67.9478 32.2 57.8202 32.1792 46.7038V34.2238L49.5512 27.2813L66.9129 34.2238V46.7038Z" fill="#9DADF2"/>
<path d="M41.8287 34.1716C41.5581 34.0571 41.2562 34.0571 40.9752 34.1716L36.5724 35.9307C36.1456 36.0972 35.875 36.5032 35.875 36.9611V41.6554C35.875 42.2695 36.3746 42.7691 36.9887 42.7691C37.6028 42.7691 38.1024 42.2695 38.1024 41.6554V37.7209L41.7975 36.243C42.0785 36.1285 42.2867 35.9203 42.4116 35.6392C42.5261 35.3686 42.5261 35.0668 42.4116 34.7858C42.2971 34.5047 42.0889 34.2965 41.8183 34.1716H41.8287Z" fill="#9DADF2"/>
<path d="M77.708 21.4211C70.193 13.8957 60.1902 9.76343 49.5526 9.76343C38.915 9.76343 28.9227 13.9061 21.3973 21.4211C5.87799 36.9404 5.87799 62.2022 21.3973 77.7319C29.1621 85.4967 39.3522 89.3686 49.5526 89.3686C59.7531 89.3686 69.9432 85.4863 77.708 77.7319C93.2273 62.2126 93.2273 36.9508 77.708 21.4211ZM72.2018 46.7037C72.233 60.8282 63.2087 73.1833 49.7504 77.4612C49.6255 77.5029 49.4902 77.5029 49.3548 77.4612C35.8965 73.1833 26.8723 60.8282 26.9035 46.7037V31.0803C26.9035 30.8201 27.0596 30.5807 27.3094 30.4766L49.3132 21.6813C49.3861 21.6501 49.4693 21.6397 49.5526 21.6397C49.6359 21.6397 49.7192 21.6501 49.7921 21.6813L71.7959 30.4871C72.0457 30.5807 72.2018 30.8201 72.2018 31.0907V46.7141V46.7037Z" fill="#9DADF2"/>
</svg>
